HIERARCHY
ROOT Hips
{
	OFFSET 0.000000 0.000000 0.000000
	CHANNELS 6 Xposition Yposition Zposition Zrotation Yrotation Xrotation 
	JOINT LHipJoint
	{
		OFFSET 0.000000 0.000000 0.000000
		CHANNELS 3 Zrotation Yrotation Xrotation
		JOINT LeftUpLeg
		{
			OFFSET 1.363060 -1.794630 0.839290
			CHANNELS 3 Zrotation Yrotation Xrotation
			JOINT LeftLeg
			{
				OFFSET 2.448110 -6.726130 0.000000
				CHANNELS 3 Zrotation Yrotation Xrotation
				JOINT LeftFoot
				{
					OFFSET 2.562200 -7.039590 0.000000
					CHANNELS 3 Zrotation Yrotation Xrotation
					JOINT LeftToeBase
					{
						OFFSET 0.157640 -0.433110 2.322550
						CHANNELS 3 Zrotation Yrotation Xrotation
						End Site
						{
							OFFSET 0.000000 0.000000 0.000000
						}
					}
				}
			}
		}
	}
	JOINT RHipJoint
	{
		OFFSET 0.000000 0.000000 0.000000
		CHANNELS 3 Zrotation Yrotation Xrotation
		JOINT RightUpLeg
		{
			OFFSET -1.305520 -1.794630 0.839290
			CHANNELS 3 Zrotation Yrotation Xrotation
			JOINT RightLeg
			{
				OFFSET -2.542530 -6.985550 0.000000
				CHANNELS 3 Zrotation Yrotation Xrotation
				JOINT RightFoot
				{
					OFFSET -2.568260 -7.056230 0.000000
					CHANNELS 3 Zrotation Yrotation Xrotation
					JOINT RightToeBase
					{
						OFFSET -0.164730 -0.452590 2.363150
						CHANNELS 3 Zrotation Yrotation Xrotation
						End Site
						{
							OFFSET 0.000000 0.000000 0.000000
						}
					}
				}
			}
		}
	}
	JOINT LowerBack
	{
		OFFSET 0.000000 0.000000 0.000000
		CHANNELS 3 Zrotation Yrotation Xrotation
		JOINT Spine
		{
			OFFSET 0.028270 2.035590 -0.193380
			CHANNELS 3 Zrotation Yrotation Xrotation
			JOINT Spine1
			{
				OFFSET 0.056720 2.048850 -0.042750
				CHANNELS 3 Zrotation Yrotation Xrotation
				JOINT Neck
				{
					OFFSET 0.000000 0.000000 0.000000
					CHANNELS 3 Zrotation Yrotation Xrotation
					JOINT Neck1
					{
						OFFSET -0.054170 1.746240 0.172020
						CHANNELS 3 Zrotation Yrotation Xrotation
						JOINT Head
						{
							OFFSET 0.104070 1.761360 -0.123970
							CHANNELS 3 Zrotation Yrotation Xrotation
							End Site
							{
								OFFSET 0.000000 0.000000 0.000000
							}
						}
					}
				}
				JOINT LeftShoulder
				{
					OFFSET 0.000000 0.000000 0.000000
					CHANNELS 3 Zrotation Yrotation Xrotation
					JOINT LeftArm
					{
						OFFSET 3.362410 1.200890 -0.311210
						CHANNELS 3 Zrotation Yrotation Xrotation
						JOINT LeftForeArm
						{
							OFFSET 4.983000 -0.000000 -0.000000
							CHANNELS 3 Zrotation Yrotation Xrotation
							JOINT LeftHand
							{
								OFFSET 3.483560 -0.000000 -0.000000
								CHANNELS 3 Zrotation Yrotation Xrotation
								JOINT LeftFingerBase
								{
									OFFSET 0.000000 0.000000 0.000000
									CHANNELS 3 Zrotation Yrotation Xrotation
									JOINT LeftHandIndex1
									{
										OFFSET 0.715260 -0.000000 -0.000000
										CHANNELS 3 Zrotation Yrotation Xrotation
										End Site
										{
											OFFSET 0.000000 0.000000 0.000000
										}
									}
								}
								JOINT LThumb
								{
									OFFSET 0.000000 0.000000 0.000000
									CHANNELS 3 Zrotation Yrotation Xrotation
									End Site
									{
										OFFSET 0.000000 0.000000 0.000000
									}
								}
							}
						}
					}
				}
				JOINT RightShoulder
				{
					OFFSET 0.000000 0.000000 0.000000
					CHANNELS 3 Zrotation Yrotation Xrotation
					JOINT RightArm
					{
						OFFSET -3.136600 1.374050 -0.404650
						CHANNELS 3 Zrotation Yrotation Xrotation
						JOINT RightForeArm
						{
							OFFSET -5.241900 -0.000000 -0.000000
							CHANNELS 3 Zrotation Yrotation Xrotation
							JOINT RightHand
							{
								OFFSET -3.444170 -0.000000 -0.000000
								CHANNELS 3 Zrotation Yrotation Xrotation
								JOINT RightFingerBase
								{
									OFFSET 0.000000 0.000000 0.000000
									CHANNELS 3 Zrotation Yrotation Xrotation
									JOINT RightHandIndex1
									{
										OFFSET -0.622530 -0.000000 -0.000000
										CHANNELS 3 Zrotation Yrotation Xrotation
										End Site
										{
											OFFSET 0.000000 0.000000 0.000000
										}
									}
								}
								JOINT RThumb
								{
									OFFSET 0.000000 0.000000 0.000000
									CHANNELS 3 Zrotation Yrotation Xrotation
									End Site
									{
										OFFSET 0.000000 0.000000 0.000000
									}
								}
							}
						}
					}
				}
			}
		}
	}
}
MOTION
Frames: 9
Frame Time: 0.008333
0.555767 17.852367 -25.758619 -1.206691 40.515867 2.495698 -5.566817 -1.892923 0.069144 -6.955989 -14.280908 -9.580677 0.087046 8.271276 22.383813 2.024073 -6.330971 5.853978 0.217100 -2.999300 -8.276900 3.994208 1.534529 0.498738 16.355104 -14.444945 -7.687857 -1.163862 -8.764542 22.671737 9.243837 -36.704999 -23.757194 -0.025300 -1.027000 2.823100 2.395774 6.873519 3.915784 2.462083 9.075475 -0.445410 0.534117 4.736343 -1.852539 5.629622 24.374076 3.532416 -7.891246 31.023998 -5.406460 -4.004700 15.165600 2.891000 3.780434 -2.385174 0.443946 -93.397859 -3.392703 23.487028 14.009782 -22.520879 -2.524087 0.222341 0.396475 -0.249428 10.930473 2.711660 0.436700 -7.125000 0.000000 0.000000 -12.741100 32.152700 4.095000 -2.873405 0.548082 0.398993 82.371902 -8.450893 10.081548 -18.098269 27.937469 -4.399396 -0.018294 -0.624331 -13.355994 -21.906677 1.918987 -1.025800 7.125000 0.000000 0.000000 3.715400 -27.205200 1.608900 
0.561030 17.852566 -25.762888 -0.719214 40.607086 2.893645 -5.598587 -1.904106 0.046049 -7.358684 -14.406579 -9.583374 0.074065 8.253693 22.334990 2.006453 -6.288124 5.855706 0.211300 -2.959600 -8.166400 3.992399 1.522835 0.507675 15.905865 -14.760013 -7.912134 -1.183993 -8.785020 22.736429 9.214779 -36.551325 -23.482077 -0.023600 -0.992600 2.728500 2.210877 6.865547 3.839723 2.286481 9.037803 -0.455755 0.469366 4.728546 -1.823780 6.155531 24.487515 4.623531 -8.591832 31.016591 -6.680878 -4.405900 15.202400 2.490600 3.760985 -2.448204 0.453098 -93.313218 -3.463397 23.442884 13.941656 -22.425670 -2.500805 0.222184 0.393708 -0.063353 10.886035 2.692750 0.431800 -7.125000 0.000000 0.000000 -12.772500 32.134700 4.111200 -2.900244 0.487107 0.389352 82.465281 -8.405080 9.754414 -18.093057 27.917315 -4.373327 0.018523 -0.626186 -13.726380 -20.153335 0.309024 -0.351000 7.125000 0.000000 0.000000 5.101600 -28.938700 2.003300 
0.554178 17.853062 -25.755143 -1.283274 40.475731 2.453675 -5.568004 -1.896566 0.070622 -6.888177 -14.341747 -9.512879 0.081081 8.249446 22.326148 1.994236 -6.169034 5.845333 0.215600 -2.989000 -8.248000 3.994082 1.524609 0.499731 16.424988 -14.351741 -7.705329 -1.166537 -8.784725 22.722566 9.236644 -36.711589 -23.845066 -0.024800 -1.017100 2.795900 2.503472 6.914424 3.891416 2.444504 9.121104 -0.447047 0.482456 4.777438 -1.831142 6.728083 24.604025 5.735749 -9.345435 31.042252 -7.879390 -4.818000 15.259300 2.129300 3.740788 -2.506833 0.459650 -93.345087 -3.496330 23.341990 13.878242 -22.342755 -2.481238 0.228367 0.389291 0.039409 11.037918 2.591572 0.419300 -7.125000 0.000000 0.000000 -12.642600 32.042500 4.096300 -2.924639 0.428902 0.385853 82.450252 -8.439764 9.622136 -17.955454 27.761516 -4.351126 -0.036897 -0.622951 -12.946499 -22.757189 2.516498 -1.317900 7.125000 0.000000 0.000000 3.065700 -26.543900 1.374400 
0.556065 17.853658 -25.756434 -1.033415 40.450557 2.668685 -5.582303 -1.905149 0.060572 -7.087922 -14.353637 -9.528165 0.075898 8.242059 22.305907 1.981043 -6.123726 5.826369 0.216300 -2.994100 -8.262300 3.993643 1.517227 0.504657 16.195816 -14.464813 -7.804232 -1.173256 -8.790266 22.738279 9.212013 -36.602436 -23.675604 -0.024200 -1.004400 2.761000 2.403084 6.937260 3.864111 2.349930 9.136262 -0.470310 0.446387 4.794494 -1.843613 7.152967 24.725957 6.837074 -9.998347 31.057704 -9.174856 -5.202000 15.312000 1.705000 3.717171 -2.564492 0.468446 -93.275710 -3.469351 23.493595 13.895683 -22.370281 -2.488256 0.228717 0.395268 -0.121002 11.088056 2.745742 0.449700 -7.125000 0.000000 0.000000 -12.625900 32.191800 4.044100 -2.954014 0.371449 0.374018 82.534553 -8.317903 9.194202 -17.863541 27.639355 -4.297695 -0.018927 -0.623147 -13.216905 -21.677697 1.766341 -0.953000 7.125000 0.000000 0.000000 3.893900 -27.375200 1.670900 
0.555271 17.853956 -25.754746 -1.024148 40.401842 2.685247 -5.582444 -1.907345 0.059728 -7.090131 -14.349924 -9.526067 0.077979 8.244552 22.313666 1.970323 -6.069724 5.799203 0.216800 -2.997300 -8.271200 3.994365 1.513751 0.506338 16.190334 -14.432714 -7.789216 -1.167844 -8.780017 22.703313 9.213497 -36.600159 -23.648843 -0.024100 -1.002400 2.755500 2.421688 6.959858 3.859548 2.325273 9.162944 -0.480143 0.415719 4.813021 -1.847569 7.465770 24.781966 7.514619 -10.407816 31.051341 -9.955616 -5.445200 15.336600 1.456600 3.703349 -2.598468 0.472760 -93.238831 -3.482028 23.511925 13.863305 -22.325941 -2.477859 0.230071 0.395104 -0.101707 11.119477 2.755770 0.453000 -7.125000 0.000000 0.000000 -12.603500 32.202700 4.033200 -2.972584 0.337228 0.368421 82.589625 -8.258412 8.836662 -17.810431 27.572127 -4.275646 -0.019605 -0.622531 -13.354859 -21.624480 1.831420 -0.975300 7.125000 0.000000 0.000000 3.934600 -27.307700 1.694700 
0.554476 17.854254 -25.752859 -1.010785 40.346998 2.704725 -5.583144 -1.907875 0.062513 -7.093492 -14.332412 -9.508758 0.072436 8.231559 22.274616 1.960724 -6.017349 5.802352 0.217300 -3.001000 -8.281500 3.994360 1.512720 0.505193 16.179969 -14.384922 -7.802876 -1.171752 -8.792793 22.740019 9.203963 -36.578994 -23.660664 -0.024000 -1.000800 2.751000 2.434169 6.982641 3.853997 2.297427 9.190928 -0.490663 0.381735 4.829667 -1.852144 7.644209 24.810072 7.911483 -10.618816 31.038194 -10.437022 -5.583000 15.345600 1.298000 3.695469 -2.618491 0.475278 -93.198406 -3.489101 23.539273 13.831105 -22.280303 -2.467054 0.230978 0.394609 -0.080104 11.135035 2.754467 0.453400 -7.125000 0.000000 0.000000 -12.591600 32.202400 4.029400 -2.984571 0.316808 0.364641 82.646762 -8.200311 8.452094 -17.779910 27.533309 -4.262968 -0.018678 -0.622389 -13.608785 -21.537422 1.860161 -0.981700 7.125000 0.000000 0.000000 4.002100 -27.279500 1.726600 
0.554178 17.854552 -25.751370 -0.950044 40.293342 2.760636 -5.585891 -1.908897 0.062819 -7.136308 -14.316912 -9.503007 0.068039 8.223117 22.247862 1.951424 -5.971410 5.797184 0.217900 -3.005100 -8.293100 3.994563 1.511753 0.505078 16.126531 -14.365329 -7.820570 -1.174024 -8.798003 22.755097 9.196509 -36.552062 -23.633401 -0.023900 -0.997600 2.742300 2.417525 7.000678 3.839195 2.258435 9.211073 -0.498723 0.350833 4.840947 -1.851157 7.722685 24.821067 8.088070 -10.683994 31.024947 -10.684794 -5.640100 15.344700 1.212000 3.692532 -2.627962 0.476453 -93.160597 -3.498734 23.551741 13.794016 -22.226800 -2.454275 0.231312 0.393556 -0.027427 11.127009 2.743008 0.451000 -7.125000 0.000000 0.000000 -12.596400 32.191600 4.034300 -2.991041 0.307080 0.362356 82.701550 -8.149613 8.067963 -17.774852 27.524787 -4.258435 -0.013189 -0.622707 -13.941162 -21.260487 1.714703 -0.911500 7.125000 0.000000 0.000000 4.217200 -27.440200 1.803900 
0.553781 17.854751 -25.749583 -0.898891 40.232649 2.807566 -5.587832 -1.909096 0.064368 -7.171214 -14.294218 -9.495533 0.063153 8.213457 22.217083 1.942580 -5.926630 5.795819 0.218600 -3.009600 -8.305600 3.994721 1.511764 0.504268 16.081170 -14.335913 -7.835141 -1.176725 -8.804786 22.775509 9.188314 -36.526743 -23.620276 -0.023800 -0.996700 2.739700 2.404983 7.015796 3.824231 2.221880 9.228354 -0.504361 0.318319 4.849489 -1.847087 7.727899 24.819407 8.087479 -10.634315 31.013261 -10.742395 -5.632900 15.336500 1.186600 3.693814 -2.629251 0.476703 -93.122574 -3.507369 23.550281 13.754246 -22.168221 -2.440319 0.231171 0.391664 0.049625 11.098546 2.710691 0.444000 -7.125000 0.000000 0.000000 -12.613900 32.160200 4.050000 -2.993223 0.305861 0.361615 82.756654 -8.108887 7.713000 -17.768769 27.515845 -4.254150 -0.008606 -0.622929 -14.182585 -21.034557 1.575906 -0.847900 7.125000 0.000000 0.000000 4.393600 -27.591900 1.864000 
0.553781 17.854949 -25.748093 -0.830479 40.170920 2.868061 -5.590899 -1.909555 0.065176 -7.222017 -14.274041 -9.488939 0.057737 8.203411 22.184534 1.932539 -5.876916 5.793181 0.219500 -3.016100 -8.323500 3.994769 1.511544 0.503717 16.017309 -14.322674 -7.860311 -1.180456 -8.812701 22.799660 9.177753 -36.490606 -23.588996 -0.023700 -0.993000 2.729500 2.384880 7.028683 3.807439 2.181209 9.242031 -0.509794 0.285828 4.856201 -1.841921 7.733212 24.819996 8.087047 -10.588256 31.006033 -10.792530 -5.625700 15.330800 1.164600 3.695017 -2.630528 0.477117 -93.080876 -3.506670 23.558705 13.720224 -22.117533 -2.428275 0.230771 0.390124 0.115966 11.065799 2.685579 0.438100 -7.125000 0.000000 0.000000 -12.635700 32.135600 4.065000 -2.995308 0.305067 0.361039 82.811399 -8.076786 7.396860 -17.758469 27.501859 -4.248231 -0.003892 -0.623368 -14.368674 -20.828075 1.393807 -0.770100 7.125000 0.000000 0.000000 4.556500 -27.788500 1.912300 
